<?xml version="1.0" standalone="no"?>
<!DOCTYPE svg PUBLIC "-//W3C//DTD SVG 20010904//EN" "http://www.w3.org/TR/2001/REC-SVG-20010904/DTD/svg10.dtd">
<svg xmlns="http://www.w3.org/2000/svg" version="1.0" width="1024.000000pt" height="1024.000000pt" viewBox="0 0 1024.000000 1024.000000" preserveAspectRatio="xMidYMid meet">
<metadata>
Created by potrace 1.16, written by Peter Selinger 2001-2019
<meta name="Producer" content="Online-Convert"/></metadata>
<g transform="translate(0.000000,1024.000000) scale(0.100000,-0.100000)" fill="#000000" stroke="none">
<path d="M4610 9374 c-85 -8 -185 -16 -222 -17 -36 -1 -64 -4 -62 -6 3 -3 -57 -15 -133 -28 -148 -25 -338 -69 -468 -108 -44 -14 -91 -22 -105 -20 -18 4 -20 3 -7 -3 14 -6 1 -13 -55 -31 -422 -134 -911 -412 -1282 -728 -27 -23 -54 -40 -59 -36 -6 3 -7 2 -4 -4 7 -12 -153 -159 -168 -155 -5 2 -7 0 -3 -4 4 -4 -34 -50 -85 -103 -114 -120 -219 -243 -330 -388 -46 -62 -87 -110 -89 -108 -3 3 -5 -1 -5 -8 0 -12 -130 -218 -158 -249 -8 -10 -14 -19 -12 -21 1 -2 -26 -55 -60 -118 -103 -190 -209 -432 -284 -651 -21 -62 -37 -93 -42 -85 -5 7 -6 3 -2 -10 3 -13 -9 -77 -29 -150 -52 -188 -116 -529 -116 -617 0 -15 -3 -25 -8 -23 -9 6 -10 -33 -15 -510 -2 -211 0 -383 5 -383 4 0 8 -20 8 -44 0 -48 30 -267 55 -401 35 -186 121 -490 147 -520 5 -6 79 61 186 168 98 98 182 174 187 170 4 -4 5 -3 2 3 -7 12 125 147 136 139 4 -3 5 -2 2 2 -8 10 707 723 718 716 6 -3 7 -1 3 6 -5 8 224 244 643 664 l650 652 55 -54 c30 -30 52 -59 49 -64 -3 -6 -1 -7 4 -4 13 8 36 -17 25 -28 -4 -5 -2 -5 4 -2 12 7 57 -35 49 -46 -3 -4 -2 -5 2 -2 10 8 163 -147 156 -158 -3 -6 -2 -7 4 -4 13 8 246 -227 236 -238 -4 -4 -3 -5 3 -2 14 8 87 -66 77 -78 -5 -4 -3 -5 3 -2 14 8 47 -26 37 -38 -5 -4 -3 -6 3 -2 5 3 27 -11 47 -32 36 -37 49 -59 25 -45 -7 4 -8 3 -4 -5 4 -6 12 -9 17 -5 6 3 25 -9 44 -28 34 -32 47 -57 23 -42 -7 4 -8 3 -4 -4 4 -6 14 -8 23 -5 13 5 15 2 10 -11 -4 -10 -3 -15 3 -11 12 8 213 -192 205 -204 -2 -5 3 -15 12 -22 12 -10 14 -10 9 -1 -4 6 -5 12 -3 12 2 0 75 -70 162 -156 l157 -157 262 262 c144 144 266 258 271 254 4 -4 5 -3 2 3 -9 15 1872 1886 1887 1877 6 -3 8 -2 3 2 -4 5 7 23 24 41 17 18 30 37 28 43 -2 5 -45 47 -95 93 -300 274 -334 308 -311 313 103 21 515 85 529 82 10 -3 16 -2 13 3 -7 11 150 34 166 25 7 -5 10 -4 6 2 -4 5 34 16 91 26 53 8 216 36 362 61 146 25 270 46 276 46 12 0 13 3 -41 -307 -22 -122 -42 -220 -46 -217 -4 2 -5 -4 -2 -14 2 -10 -20 -162 -50 -338 -31 -175 -64 -370 -74 -432 -10 -61 -21 -111 -25 -110 -3 2 -65 59 -137 127 -77 72 -128 128 -124 135 3 6 2 7 -2 3 -5 -4 -36 20 -70 53 l-61 61 -805 -808 c-442 -444 -808 -807 -812 -805 -5 1 -6 -1 -3 -6 7 -12 -148 -164 -158 -155 -4 4 -6 3 -4 -4 2 -7 -242 -258 -542 -558 l-545 -545 -362 362 c-199 199 -359 367 -356 372 3 6 2 8 -2 3 -12 -10 -126 103 -118 117 3 6 2 7 -2 3 -5 -4 -143 126 -307 290 l-299 298 -564 -570 c-310 -313 -569 -569 -575 -567 -6 1 -9 -1 -6 -6 7 -12 -1108 -1124 -1119 -1115 -4 4 -5 3 -1 -4 3 -6 2 -14 -4 -18 -19 -12 -10 -38 40 -122 28 -46 48 -89 44 -95 -5 -7 -3 -8 6 -3 9 6 10 1 5 -16 -4 -16 -3 -19 3 -11 6 9 23 -9 61 -66 28 -44 51 -85 49 -93 -2 -7 3 -13 9 -14 18 0 45 -43 37 -57 -4 -6 -3 -8 4 -5 6 4 31 -22 58 -60 27 -38 67 -92 90 -122 24 -30 42 -59 41 -65 -1 -5 4 -10 11 -11 16 0 33 -26 25 -39 -3 -5 -1 -6 4 -3 12 7 46 -26 38 -36 -3 -4 -2 -5 1 -3 3 3 20 -12 37 -32 60 -69 132 -147 229 -246 l97 -99 -6 721 c-3 396 -3 727 -1 734 4 10 69 12 322 10 l316 -3 0 -958 0 -958 27 -12 c22 -10 24 -14 12 -22 -10 -8 -8 -9 10 -4 17 5 22 4 16 -5 -5 -9 -4 -11 3 -6 14 9 155 -68 145 -78 -5 -4 -3 -7 2 -6 22 5 36 -1 29 -12 -4 -7 -3 -8 4 -4 7 4 40 -9 75 -28 35 -20 69 -36 74 -36 7 0 10 468 7 1485 l-3 1485 322 -2 322 -3 0 -1592 c0 -876 4 -1593 8 -1593 5 0 5 -4 2 -10 -3 -5 0 -8 7 -5 7 3 102 -20 211 -50 109 -30 200 -55 202 -55 3 0 5 593 5 1318 0 854 4 1312 10 1302 7 -10 10 -11 10 -2 0 10 65 12 310 12 l310 -1 0 -1335 0 -1334 73 0 c41 0 142 3 225 7 l152 6 0 1539 0 1538 323 0 324 0 -1 -654 c0 -455 -3 -653 -10 -649 -6 3 -5 0 2 -8 6 -7 12 -29 12 -48 0 -25 -3 -32 -9 -22 -7 10 -9 7 -8 -12 1 -15 5 -27 9 -27 11 0 7 -121 -4 -142 -5 -11 -5 -18 0 -18 5 0 9 -249 9 -580 0 -318 -4 -577 -8 -574 -5 3 -9 0 -9 -5 0 -6 5 -11 11 -11 8 0 7 -6 -2 -17 -10 -11 -10 -14 -2 -9 10 5 13 -14 11 -88 -1 -52 0 -98 3 -101 7 -6 379 104 396 117 10 8 12 411 10 1864 l-2 1854 331 0 332 0 4 -37 c3 -21 4 -784 4 -1695 -1 -1037 3 -1658 8 -1658 6 0 26 11 45 24 20 13 99 63 176 112 77 48 148 94 158 102 16 14 17 122 17 2004 l0 1988 320 0 320 0 0 -1672 c0 -919 2 -1673 4 -1675 9 -9 235 289 338 447 360 551 576 1142 654 1791 25 204 25 666 1 878 -25 208 -60 404 -107 595 -22 87 -37 164 -33 170 3 6 3 8 -2 4 -4 -4 -27 51 -51 122 -23 71 -68 192 -99 269 -31 78 -53 145 -50 151 4 6 2 9 -4 8 -5 -2 -34 47 -65 109 l-55 112 50 208 c27 114 75 314 105 443 31 129 80 331 108 448 l52 214 -40 -8 c-23 -4 -55 -8 -73 -8 -17 -1 -30 -3 -28 -6 6 -10 -312 -71 -341 -65 -23 4 -25 3 -9 -4 11 -5 15 -10 9 -10 -5 -1 -88 -17 -184 -36 -95 -20 -187 -34 -204 -32 -17 2 -22 2 -11 -1 11 -3 -41 -17 -115 -33 l-135 -27 -53 46 c-108 95 -209 177 -307 250 -55 41 -99 79 -97 84 1 5 -2 7 -8 3 -13 -8 -92 49 -82 60 4 5 2 5 -4 2 -6 -4 -38 11 -71 32 -174 112 -447 255 -635 331 -59 24 -105 46 -103 49 2 3 -7 7 -18 7 -12 1 -94 26 -182 57 -88 30 -175 58 -193 62 -19 4 -30 11 -26 17 4 7 2 8 -4 4 -17 -10 -96 5 -80 16 9 7 7 8 -8 4 -23 -7 -228 37 -218 46 3 4 -3 4 -13 2 -10 -3 -63 2 -118 11 -286 46 -764 64 -1025 39z"/>
</g>
</svg>
